<?xml version="1.0" encoding="UTF-8"?>
<!DOCTYPE svg PUBLIC "-//W3C//DTD SVG 1.1//EN" "http://www.w3.org/Graphics/SVG/1.1/DTD/svg11.dtd">
<!-- Creator: CorelDRAW X7 -->
<svg xmlns="http://www.w3.org/2000/svg" xml:space="preserve" width="111.811mm" height="51.605mm" version="1.1" style="shape-rendering:geometricPrecision; text-rendering:geometricPrecision; image-rendering:optimizeQuality; fill-rule:evenodd; clip-rule:evenodd" viewBox="0 0 19413 8960" xmlns:xlink="http://www.w3.org/1999/xlink">
 <defs>
  <style type="text/css">
   <![CDATA[
    .fil0 {fill:black;fill-rule:nonzero}
    .fil1 {fill:white}
   ]]>
  </style>
 </defs>
 <g id="Warstwa_x0020_1">
  <metadata id="CorelCorpID_0Corel-Layer"/>
  <rect class="fil0" width="19413" height="8960"/>
  <path class="fil1" d="M5491 5167c-28,-18 -53,-39 -77,-63 -96,-95 -142,-213 -142,-348 0,-135 46,-250 142,-345 95,-95 213,-145 348,-145 134,0 249,50 345,145 95,95 144,210 144,345 0,135 -49,253 -144,348 -96,95 -211,141 -345,141 -98,2 -344,1 -442,0l-373 0c-148,0 -267,-61 -361,-184 -87,-113 -128,-246 -128,-394l0 -1128c0,-144 -103,-192 -263,-209 -250,-27 -559,34 -742,217 -145,145 -217,319 -217,526l0 1254c0,56 29,86 89,86 55,0 85,-30 85,-86l0 -1041 434 0c55,0 98,-32 98,-91 0,-56 -56,-83 -111,-83l-421 0c0,-178 35,-311 168,-440 172,-173 323,-174 544,-168 153,5 162,27 162,133l0 1030c0,200 58,372 180,519 128,155 289,233 483,233 231,0 462,0 694,1 417,2 784,-196 784,-664 0,-184 -66,-342 -194,-470 -128,-128 -285,-194 -469,-194 -184,0 -342,66 -470,194 -128,128 -194,286 -194,470 0,157 53,295 148,411l245 0zm-171 78l442 0"/>
  <path class="fil1" d="M6729 5230c139,124 289,178 478,196 223,21 456,-122 571,-329 128,221 319,329 575,329 327,0 660,-261 660,-595l9 -866c0,-214 213,-472 550,-469 283,1 489,156 489,443 0,203 -226,393 -355,541l-657 665c-16,16 -26,40 -26,63l0 122c0,59 30,89 89,89l1174 0 23 0c88,0 73,-175 -1,-175l-25 0 -1082 0 0 -3 680 -695c149,-168 239,-279 271,-327 73,-114 92,-198 87,-295 -6,-134 -46,-259 -158,-394 -116,-140 -315,-218 -585,-206 -345,16 -648,295 -648,650 0,297 -9,553 -9,851 -29,249 -236,427 -486,427 -135,0 -250,-46 -345,-135 -95,-92 -141,-204 -141,-338l0 -598c0,-59 -30,-89 -89,-89 -59,0 -88,30 -88,89l1 601c5,135 -63,259 -162,348 -187,167 -488,157 -667,-16 -95,-95 -145,-207 -145,-338l0 -598c0,-56 -29,-86 -88,-86 -56,0 -86,30 -86,86l0 601c0,176 55,336 186,451z"/>
  <path class="fil1" d="M11847 4496c19,-30 42,-58 69,-85 95,-95 213,-144 348,-144 134,0 249,49 344,144 95,95 145,210 145,345 0,134 -50,253 -145,348 -95,95 -210,141 -344,141 -135,0 -253,-46 -348,-141 -96,-95 -142,-214 -142,-348l0 -5 -141 217c31,96 85,181 161,257 128,128 286,194 470,194 187,0 341,-62 469,-190 128,-128 194,-286 194,-473 0,-184 -66,-342 -194,-470 -128,-128 -286,-193 -469,-193 -184,0 -342,65 -470,193 -40,44 -80,88 -130,163 -50,75 -110,181 -184,291 -151,224 -316,505 -618,505 -135,0 -253,-46 -348,-141 -95,-95 -141,-214 -141,-348 0,-135 46,-250 141,-345 95,-95 213,-144 348,-144 141,0 262,52 358,157 19,23 39,33 62,33 39,0 92,-52 92,-92 0,-19 -10,-39 -26,-59 -132,-141 -292,-213 -486,-213 -184,0 -342,65 -470,193 -128,128 -193,286 -193,470 0,187 62,345 190,473l17 16c138,118 291,172 456,174 325,0 557,-269 747,-553l0 0 238 -370z"/>
  <g id="_734255371664">
   <path class="fil1" d="M14833 4855l997 0c55,0 85,-30 85,-89 0,-292 -181,-544 -459,-633 -63,-20 -132,-29 -204,-29 -249,0 -439,105 -567,318 -49,83 -80,171 -91,266 -7,59 -6,112 1,171 19,144 82,271 188,376 131,129 289,194 469,194 125,0 243,-33 351,-102 30,-20 46,-43 46,-69 0,-42 -43,-98 -82,-98 -16,0 -36,6 -56,19 -82,50 -167,76 -259,76 -200,0 -344,-89 -433,-266 -19,-39 -36,-85 -46,-134 -44,-211 64,-427 256,-525 69,-36 141,-53 223,-53 49,0 99,7 148,24 190,59 302,186 334,380l-906 0c-14,57 -12,117 5,174z"/>
   <path class="fil1" d="M14204 4770c0,10 -1,11 -1,21 -10,132 -60,229 -145,313 -95,95 -210,141 -344,141 -135,0 -253,-46 -348,-141 -95,-95 -141,-213 -141,-348 0,-134 46,-249 141,-344 95,-95 213,-144 348,-144 134,0 249,49 344,144 215,215 90,431 482,446l0 0c-13,-57 -7,-114 0,-169 -148,-5 -153,-33 -196,-142 -17,-42 -35,-86 -58,-126 -22,-41 -60,-76 -83,-111 -121,-133 -296,-215 -490,-215 -365,0 -662,296 -662,661 0,366 298,663 663,663 187,0 341,-62 469,-190 78,-79 140,-182 173,-286 6,-18 7,-20 11,-38 -49,-12 -143,-86 -163,-135z"/>
   <path class="fil1" d="M14376 4462l0 -1047c0,-59 -29,-89 -85,-89 -59,0 -88,30 -88,89l0 806c73,67 133,149 173,241z"/>
  </g>
 </g>
<style xmlns="" type="text/css" id="undefined"/></svg>